<svg width="85" height="31" viewBox="0 0 85 31" fill="none" xmlns="http://www.w3.org/2000/svg">
<g clip-path="url(#clip0_709_367)">
<path d="M8.418 4.62222C8.2305 4.62847 8.14404 4.76493 8.11279 4.80972L2.05133 15.3128C1.97841 15.4608 1.98883 15.5941 2.04716 15.6837C4.07008 19.1837 6.09091 22.6868 8.11175 26.1889C8.1418 26.2469 8.18747 26.2954 8.2436 26.3289C8.29973 26.3624 8.3641 26.3796 8.42945 26.3785H20.5649C20.7086 26.3816 20.8357 26.2847 20.8878 26.1889C22.9086 22.6889 24.9274 19.1878 26.9503 15.6889C26.9827 15.6321 26.9998 15.5678 26.9998 15.5024C26.9998 15.437 26.9827 15.3728 26.9503 15.316L20.8878 4.81076C20.7711 4.60972 20.567 4.62222 20.567 4.62222H8.418ZM9.2555 5.37118H19.1649L12.5576 9.18785L9.2555 5.37118ZM8.8107 5.99931L11.8982 9.56806L8.81175 11.3524L8.8107 5.99931ZM19.5399 6.01806L15.519 12.9816L9.48883 11.8222L19.5399 6.01806ZM20.9367 6.38993L25.8909 14.9795L20.9367 14.0253V6.38993ZM8.06175 6.39201V11.7837L3.39508 14.4785L8.06175 6.39201ZM20.1867 6.39201V17.9983L16.169 13.3556L20.1867 6.39201ZM9.4232 12.5691L15.5138 13.742L19.5742 18.4316L13.4888 17.2597L9.4232 12.5691ZM8.06175 12.6462V16.2139L3.42633 15.3233L8.06175 12.6462ZM8.81175 13.0014L12.8284 17.6441L8.8107 24.6076L8.81175 13.0014ZM20.9367 14.7858L25.569 15.6774L20.9367 18.3545V14.7858ZM3.1055 16.0212L8.06383 16.9753V24.6108L3.1055 16.0212ZM25.6024 16.5212L20.9367 24.6076V19.217L25.6024 16.5212ZM13.4774 18.0181L19.5086 19.1785L9.45758 24.9826L13.4774 18.0181ZM20.1857 19.6483V25.0004L17.0982 21.4326L20.1857 19.6483ZM16.4388 21.8128L19.743 25.6295H9.83258L16.4388 21.8128Z" fill="#545454"/>
<path d="M32.576 15.084C32.024 15.084 31.528 14.988 31.088 14.796C30.656 14.596 30.316 14.324 30.068 13.98C29.82 13.628 29.692 13.224 29.684 12.768H30.848C30.888 13.16 31.048 13.492 31.328 13.764C31.616 14.028 32.032 14.16 32.576 14.16C33.096 14.16 33.504 14.032 33.8 13.776C34.104 13.512 34.256 13.176 34.256 12.768C34.256 12.448 34.168 12.188 33.992 11.988C33.816 11.788 33.596 11.636 33.332 11.532C33.068 11.428 32.712 11.316 32.264 11.196C31.712 11.052 31.268 10.908 30.932 10.764C30.604 10.62 30.32 10.396 30.08 10.092C29.848 9.78 29.732 9.364 29.732 8.844C29.732 8.388 29.848 7.984 30.08 7.632C30.312 7.28 30.636 7.008 31.052 6.816C31.476 6.624 31.96 6.528 32.504 6.528C33.288 6.528 33.928 6.724 34.424 7.116C34.928 7.508 35.212 8.028 35.276 8.676H34.076C34.036 8.356 33.868 8.076 33.572 7.836C33.276 7.588 32.884 7.464 32.396 7.464C31.94 7.464 31.568 7.584 31.28 7.824C30.992 8.056 30.848 8.384 30.848 8.808C30.848 9.112 30.932 9.36 31.1 9.552C31.276 9.744 31.488 9.892 31.736 9.996C31.992 10.092 32.348 10.204 32.804 10.332C33.356 10.484 33.8 10.636 34.136 10.788C34.472 10.932 34.76 11.16 35 11.472C35.24 11.776 35.36 12.192 35.36 12.72C35.36 13.128 35.252 13.512 35.036 13.872C34.82 14.232 34.5 14.524 34.076 14.748C33.652 14.972 33.152 15.084 32.576 15.084ZM38.059 7.524V10.32H41.107V11.22H38.059V14.1H41.467V15H36.967V6.624H41.467V7.524H38.059ZM46.9113 15.084C46.1353 15.084 45.4273 14.904 44.7873 14.544C44.1473 14.176 43.6393 13.668 43.2633 13.02C42.8953 12.364 42.7113 11.628 42.7113 10.812C42.7113 9.996 42.8953 9.264 43.2633 8.616C43.6393 7.96 44.1473 7.452 44.7873 7.092C45.4273 6.724 46.1353 6.54 46.9113 6.54C47.6953 6.54 48.4073 6.724 49.0473 7.092C49.6873 7.452 50.1913 7.956 50.5593 8.604C50.9273 9.252 51.1113 9.988 51.1113 10.812C51.1113 11.636 50.9273 12.372 50.5593 13.02C50.1913 13.668 49.6873 14.176 49.0473 14.544C48.4073 14.904 47.6953 15.084 46.9113 15.084ZM46.9113 14.136C47.4953 14.136 48.0193 14 48.4833 13.728C48.9553 13.456 49.3233 13.068 49.5873 12.564C49.8593 12.06 49.9953 11.476 49.9953 10.812C49.9953 10.14 49.8593 9.556 49.5873 9.06C49.3233 8.556 48.9593 8.168 48.4953 7.896C48.0313 7.624 47.5033 7.488 46.9113 7.488C46.3193 7.488 45.7913 7.624 45.3273 7.896C44.8633 8.168 44.4953 8.556 44.2233 9.06C43.9593 9.556 43.8273 10.14 43.8273 10.812C43.8273 11.476 43.9593 12.06 44.2233 12.564C44.4953 13.068 44.8633 13.456 45.3273 13.728C45.7993 14 46.3273 14.136 46.9113 14.136Z" fill="black"/>
<path d="M34.844 20.68C35.332 20.784 35.724 21.028 36.02 21.412C36.316 21.788 36.464 22.22 36.464 22.708C36.464 23.412 36.216 23.972 35.72 24.388C35.232 24.796 34.548 25 33.668 25H29.744V16.576H33.536C34.392 16.576 35.06 16.772 35.54 17.164C36.028 17.556 36.272 18.088 36.272 18.76C36.272 19.256 36.14 19.668 35.876 19.996C35.62 20.324 35.276 20.552 34.844 20.68ZM31.796 19.984H33.14C33.476 19.984 33.732 19.912 33.908 19.768C34.092 19.616 34.184 19.396 34.184 19.108C34.184 18.82 34.092 18.6 33.908 18.448C33.732 18.296 33.476 18.22 33.14 18.22H31.796V19.984ZM33.308 23.344C33.652 23.344 33.916 23.268 34.1 23.116C34.292 22.956 34.388 22.728 34.388 22.432C34.388 22.136 34.288 21.904 34.088 21.736C33.896 21.568 33.628 21.484 33.284 21.484H31.796V23.344H33.308ZM42.8982 23.512H39.7542L39.2502 25H37.1022L40.1502 16.576H42.5262L45.5742 25H43.4022L42.8982 23.512ZM42.3702 21.928L41.3262 18.844L40.2942 21.928H42.3702ZM50.7978 25L49.0458 21.82H48.5538V25H46.5018V16.576H49.9458C50.6098 16.576 51.1738 16.692 51.6378 16.924C52.1098 17.156 52.4618 17.476 52.6938 17.884C52.9258 18.284 53.0418 18.732 53.0418 19.228C53.0418 19.788 52.8818 20.288 52.5618 20.728C52.2498 21.168 51.7858 21.48 51.1698 21.664L53.1138 25H50.7978ZM48.5538 20.368H49.8258C50.2018 20.368 50.4818 20.276 50.6658 20.092C50.8578 19.908 50.9538 19.648 50.9538 19.312C50.9538 18.992 50.8578 18.74 50.6658 18.556C50.4818 18.372 50.2018 18.28 49.8258 18.28H48.5538V20.368ZM56.3819 16.576V25H54.3299V16.576H56.3819ZM60.917 25.084C60.301 25.084 59.749 24.984 59.261 24.784C58.773 24.584 58.381 24.288 58.085 23.896C57.797 23.504 57.645 23.032 57.629 22.48H59.813C59.845 22.792 59.953 23.032 60.137 23.2C60.321 23.36 60.561 23.44 60.857 23.44C61.161 23.44 61.401 23.372 61.577 23.236C61.753 23.092 61.841 22.896 61.841 22.648C61.841 22.44 61.769 22.268 61.625 22.132C61.489 21.996 61.317 21.884 61.109 21.796C60.909 21.708 60.621 21.608 60.245 21.496C59.701 21.328 59.257 21.16 58.913 20.992C58.569 20.824 58.273 20.576 58.025 20.248C57.777 19.92 57.653 19.492 57.653 18.964C57.653 18.18 57.937 17.568 58.505 17.128C59.073 16.68 59.813 16.456 60.725 16.456C61.653 16.456 62.401 16.68 62.969 17.128C63.537 17.568 63.841 18.184 63.881 18.976H61.661C61.645 18.704 61.545 18.492 61.361 18.34C61.177 18.18 60.941 18.1 60.653 18.1C60.405 18.1 60.205 18.168 60.053 18.304C59.901 18.432 59.825 18.62 59.825 18.868C59.825 19.14 59.953 19.352 60.209 19.504C60.465 19.656 60.865 19.82 61.409 19.996C61.953 20.18 62.393 20.356 62.729 20.524C63.073 20.692 63.369 20.936 63.617 21.256C63.865 21.576 63.989 21.988 63.989 22.492C63.989 22.972 63.865 23.408 63.617 23.8C63.377 24.192 63.025 24.504 62.561 24.736C62.097 24.968 61.549 25.084 60.917 25.084ZM71.3118 16.576V18.22H69.0798V25H67.0278V18.22H64.7958V16.576H71.3118ZM77.5857 23.512H74.4417L73.9377 25H71.7897L74.8377 16.576H77.2137L80.2617 25H78.0897L77.5857 23.512ZM77.0577 21.928L76.0137 18.844L74.9817 21.928H77.0577Z" fill="black"/>
</g>
<defs>
<clipPath id="clip0_709_367">
<rect width="85" height="31" fill="white"/>
</clipPath>
</defs>
</svg>
